<svg xmlns="http://www.w3.org/2000/svg" width="400" height="400" viewBox="0 0 400 400">
  <defs>
    <linearGradient id="g" x1="0%" x2="100%" y1="0%" y2="100%">
      <stop offset="0%" stop-color="#f3efe3" />
      <stop offset="100%" stop-color="#e2d7c0" />
    </linearGradient>
    <path id="leaf" d="M16 0c-5 10-6 20 0 32s18 16 22 32-7 36-12 48-2 22 6 32 20 18 26 28 6 24 1 36-15 22-23 28c-6 5-11 14-10 24s8 21 20 30" fill="none" stroke="#c5a982" stroke-width="2" stroke-linecap="round"/>
  </defs>
  <rect width="400" height="400" fill="url(#g)" />
  <g stroke="#a77a4a" stroke-opacity="0.25" fill="none">
    <circle cx="40" cy="40" r="32" />
    <circle cx="200" cy="120" r="26" />
    <circle cx="360" cy="60" r="32" />
    <circle cx="120" cy="320" r="28" />
    <circle cx="320" cy="280" r="36" />
  </g>
  <g opacity="0.35">
    <use href="#leaf" transform="translate(40 40) rotate(-12) scale(0.8)" />
    <use href="#leaf" transform="translate(200 20) rotate(24) scale(0.7)" />
    <use href="#leaf" transform="translate(300 160) rotate(-32) scale(0.9)" />
    <use href="#leaf" transform="translate(60 220) rotate(8) scale(0.6)" />
    <use href="#leaf" transform="translate(220 260) rotate(18) scale(0.85)" />
  </g>
</svg>
