<svg xmlns="http://www.w3.org/2000/svg" width="900" height="600" viewBox="0 0 900 600">
  <defs>
    <linearGradient id="skyJardin" x1="0" y1="0" x2="0" y2="1">
      <stop offset="0%" stop-color="#f9f3e4" />
      <stop offset="100%" stop-color="#e8dcc5" />
    </linearGradient>
    <linearGradient id="green" x1="0" y1="0" x2="1" y2="0">
      <stop offset="0%" stop-color="#6f8a5b" />
      <stop offset="100%" stop-color="#416241" />
    </linearGradient>
    <linearGradient id="path" x1="0" y1="0" x2="1" y2="1">
      <stop offset="0%" stop-color="#cda97b" />
      <stop offset="100%" stop-color="#9a6b43" />
    </linearGradient>
  </defs>
  <rect width="900" height="600" fill="url(#skyJardin)" />
  <path d="M0 360 Q 220 320 360 360 Q 520 400 900 360 L 900 600 L 0 600 Z" fill="url(#green)" />
  <path d="M260 600 C 320 520 420 500 520 540 C 620 580 720 540 820 440 L 900 520 L 900 600 Z" fill="url(#path)" opacity="0.85" />
  <g fill="#fefbf6" opacity="0.7">
    <circle cx="740" cy="120" r="50" />
    <circle cx="780" cy="140" r="40" />
  </g>
  <g fill="none" stroke="#fefbf6" stroke-width="6" stroke-linecap="round" opacity="0.5">
    <path d="M80 420 Q 120 360 160 420" />
    <path d="M200 440 Q 240 380 280 440" />
    <path d="M500 420 Q 540 360 580 420" />
    <path d="M660 430 Q 700 370 740 430" />
  </g>
</svg>
