<svg xmlns="http://www.w3.org/2000/svg" width="900" height="600" viewBox="0 0 900 600">
  <defs>
    <linearGradient id="wall" x1="0" y1="0" x2="0" y2="1">
      <stop offset="0%" stop-color="#f6efe1" />
      <stop offset="100%" stop-color="#e4d5bc" />
    </linearGradient>
    <linearGradient id="table" x1="0" y1="0" x2="1" y2="0">
      <stop offset="0%" stop-color="#c49b6c" />
      <stop offset="100%" stop-color="#9a6b3c" />
    </linearGradient>
  </defs>
  <rect width="900" height="600" fill="url(#wall)" />
  <rect x="0" y="420" width="900" height="180" fill="#d1c3aa" />
  <rect x="80" y="180" width="220" height="180" fill="#fff" stroke="#c9b494" stroke-width="6" />
  <rect x="600" y="160" width="220" height="220" fill="#fff" stroke="#c9b494" stroke-width="6" />
  <rect x="180" y="320" width="520" height="120" rx="30" fill="url(#table)" />
  <rect x="200" y="340" width="80" height="260" rx="28" fill="#8f5b31" />
  <rect x="620" y="340" width="80" height="260" rx="28" fill="#8f5b31" />
  <circle cx="450" cy="250" r="70" fill="#58724a" opacity="0.35" />
  <circle cx="720" cy="240" r="40" fill="#a77a4a" opacity="0.4" />
  <path d="M120 520 Q 180 460 240 520" fill="none" stroke="#58724a" stroke-width="8" stroke-linecap="round" />
  <path d="M340 520 Q 400 460 460 520" fill="none" stroke="#58724a" stroke-width="8" stroke-linecap="round" />
  <path d="M560 520 Q 620 460 680 520" fill="none" stroke="#58724a" stroke-width="8" stroke-linecap="round" />
</svg>
